<svg height="512pt" viewBox="0 -45 512 512" width="512pt" xmlns="http://www.w3.org/2000/svg"><path d="m433.328125 29.632812c-39.511719-39.511718-103.570313-39.511718-143.082031 0l-36.171875 36.167969-36.167969-36.167969c-39.511719-39.511718-103.570312-39.511718-143.082031 0-39.511719 39.511719-39.511719 103.570313 0 143.082032l170.964843 170.964844c4.574219 4.578124 11.996094 4.578124 16.570313 0l170.964844-170.964844c39.515625-39.507813 39.515625-103.570313.003906-143.082032zm0 0" fill="#f46262"/><path d="m74.824219 172.714844 170.964843 170.964844c4.578126 4.578124 11.996094 4.578124 16.574219 0l134.796875-134.792969 36.167969-36.171875c15.722656-15.722656 25.164063-35.332032 28.375-55.738282l-143.691406 83.695313-21.027344-19.402344c-11.195313-10.328125-25.75-16.015625-40.984375-16.015625s-29.789062 5.6875-40.984375 16.015625l-21.027344 19.402344-147.894531-86.144531c2.816406 21.28125 12.382812 41.839844 28.730469 58.1875zm0 0" fill="#d65b5b"/><path d="m162.503906 208.882812-36.167968-36.167968c-39.511719-39.511719-39.511719-103.570313 0-143.082032 13.144531-13.144531 29.011718-21.890624 45.785156-26.289062-33.640625-8.820312-70.929688-.078125-97.296875 26.289062-39.511719 39.511719-39.511719 103.570313 0 143.082032l170.964843 170.964844c4.578126 4.578124 11.996094 4.578124 16.574219 0l17.464844-17.46875zm0 0" fill="#d65b5b"/><path d="m495.683594 421.671875h-479.367188c-9.011718 0-16.316406-7.304687-16.316406-16.320313v-253.515624c0-12.589844 13.652344-20.4375 24.53125-14.101563l223.253906 130.042969c5.078125 2.957031 11.351563 2.957031 16.429688 0l223.253906-130.042969c10.878906-6.335937 24.53125 1.511719 24.53125 14.101563v253.515624c0 9.015626-7.304688 16.320313-16.316406 16.320313zm0 0" fill="#d8d7da"/><path d="m256 269.992188c-2.835938 0-5.675781-.738282-8.214844-2.214844l-223.253906-130.042969c-10.878906-6.335937-24.53125 1.511719-24.53125 14.101563v253.515624c0 9.011719 7.304688 16.316407 16.316406 16.316407h239.683594zm0 0" fill="#c6c5ca"/><path d="m507.023438 417.078125c-2.925782 2.855469-6.921876 4.59375-11.339844 4.59375h-479.367188c-4.417968 0-8.414062-1.738281-11.339844-4.59375l193.1875-178.210937 37.808594-34.882813c11.3125-10.433594 28.742188-10.433594 40.054688 0l37.808594 34.882813zm0 0" fill="#eaeaea"/><path d="m256 381.355469c-9.785156 0-17.71875-7.933594-17.71875-17.71875v-10.226563c0-1.691406 1.371094-3.0625 3.0625-3.0625h29.3125c1.691406 0 3.0625 1.371094 3.0625 3.0625v10.226563c0 9.785156-7.933594 17.71875-17.71875 17.71875zm0 0" fill="#444346"/><path d="m252.074219 238.867188 30.878906-28.488282-6.925781-6.394531c-11.3125-10.433594-28.742188-10.433594-40.054688 0l-37.808594 34.882813-193.1875 178.210937c2.925782 2.855469 6.921876 4.59375 11.339844 4.59375h53.910156c-4.417968 0-8.417968-1.738281-11.339843-4.59375zm0 0" fill="#d8d7da"/><path d="m321.613281 358.691406c-4.144531 0-7.5-3.355468-7.5-7.5v-11.695312c0-4.144532 3.355469-7.5 7.5-7.5 4.140625 0 7.5 3.355468 7.5 7.5v11.695312c0 4.144532-3.359375 7.5-7.5 7.5zm0 0" fill="#444346"/><path d="m190.386719 358.691406c-4.140625 0-7.5-3.355468-7.5-7.5v-11.695312c0-4.144532 3.359375-7.5 7.5-7.5 4.144531 0 7.5 3.355468 7.5 7.5v11.695312c0 4.144532-3.355469 7.5-7.5 7.5zm0 0" fill="#444346"/><path d="m327.460938 380.808594h-11.699219c-4.140625 0-7.5-3.359375-7.5-7.5 0-4.144532 3.359375-7.5 7.5-7.5h11.699219c4.140624 0 7.5 3.355468 7.5 7.5 0 4.140625-3.359376 7.5-7.5 7.5zm0 0" fill="#f46262"/><path d="m196.238281 380.808594h-11.699219c-4.140624 0-7.5-3.359375-7.5-7.5 0-4.144532 3.359376-7.5 7.5-7.5h11.699219c4.140625 0 7.5 3.355468 7.5 7.5 0 4.140625-3.359375 7.5-7.5 7.5zm0 0" fill="#f46262"/><path d="m321.613281 111.4375c-4.144531 0-7.5-3.355469-7.5-7.5v-11.695312c0-4.144532 3.355469-7.5 7.5-7.5 4.140625 0 7.5 3.355468 7.5 7.5v11.695312c0 4.144531-3.359375 7.5-7.5 7.5zm0 0" fill="#444346"/><path d="m190.386719 111.4375c-4.140625 0-7.5-3.355469-7.5-7.5v-11.695312c0-4.144532 3.359375-7.5 7.5-7.5 4.144531 0 7.5 3.355468 7.5 7.5v11.695312c0 4.144531-3.355469 7.5-7.5 7.5zm0 0" fill="#444346"/><path d="m327.460938 133.554688h-11.699219c-4.140625 0-7.5-3.359376-7.5-7.5 0-4.144532 3.359375-7.5 7.5-7.5h11.699219c4.140624 0 7.5 3.355468 7.5 7.5 0 4.140624-3.359376 7.5-7.5 7.5zm0 0" fill="#eaeaea"/><path d="m196.238281 133.554688h-11.699219c-4.140624 0-7.5-3.359376-7.5-7.5 0-4.144532 3.359376-7.5 7.5-7.5h11.699219c4.140625 0 7.5 3.355468 7.5 7.5 0 4.140624-3.359375 7.5-7.5 7.5zm0 0" fill="#eaeaea"/><path d="m256 141.601562c-9.78125 0-18.886719-5.273437-23.765625-13.757812-2.0625-3.59375-.828125-8.175781 2.761719-10.242188 3.59375-2.0625 8.175781-.828124 10.242187 2.765626 2.210938 3.84375 6.332031 6.234374 10.761719 6.234374s8.550781-2.390624 10.761719-6.234374c2.0625-3.59375 6.648437-4.828126 10.242187-2.765626 3.589844 2.066407 4.824219 6.652344 2.761719 10.242188-4.878906 8.484375-13.984375 13.757812-23.765625 13.757812zm0 0" fill="#444346"/></svg>